# xmcd
#
# Track frame offsets:
#	150
#	30033
#	57849
#	90577
#	135986
#	187116
#	231295
#	269359
#	298047
#	334432
#
# Disc length: 4793 seconds
#
# Revision: 1
# Processed by: cddbd v1.5.2PL0 Copyright (c) Steve Scherf et al.
# Submitted via: audiograbber 1.83.01
#
DISCID=8b12b70a
DTITLE=Grateful Dead - 78-12-12 Jai-Alai Fronton, Miami FL
DYEAR=1900
DGENRE=
TTITLE0=Bertha
TTITLE1=Good Lovin'
TTITLE2=Brown Eyed Women
TTITLE3=Estimated Prophet
TTITLE4=Eyes Of The World
TTITLE5=Drums
TTITLE6=Not Fade Away
TTITLE7=Going Down The Road Feeling Bad
TTITLE8=Around and Around
TTITLE9=US Blues
EXTD=
EXTT0=
EXTT1=
EXTT2=
EXTT3=
EXTT4=
EXTT5=
EXTT6=
EXTT7=
EXTT8=
EXTT9=
PLAYORDER=
